<svg width="1600" height="900" viewBox="0 0 1600 900" fill="none" xmlns="http://www.w3.org/2000/svg" role="img" aria-labelledby="title desc">
  <title id="title">Premium pack icons visual</title>
  <desc id="desc">Icon visual with roadmap milestones, SLA shield, and strategic support for premium package.</desc>
  <defs>
    <linearGradient id="bg" x1="110" y1="60" x2="1510" y2="860" gradientUnits="userSpaceOnUse">
      <stop stop-color="#FFF3E6"/>
      <stop offset="1" stop-color="#FFFCFA"/>
    </linearGradient>
    <linearGradient id="line" x1="430" y1="470" x2="1170" y2="470" gradientUnits="userSpaceOnUse">
      <stop stop-color="#C96A1B"/>
      <stop offset="1" stop-color="#E48A24"/>
    </linearGradient>
  </defs>

  <rect x="24" y="24" width="1552" height="852" rx="42" fill="url(#bg)"/>
  <rect x="86" y="86" width="1428" height="728" rx="34" fill="#FFFFFF" fill-opacity="0.92" stroke="#F1D7BA"/>

  <rect x="120" y="120" width="280" height="54" rx="27" fill="#C96A1B"/>
  <rect x="156" y="141" width="208" height="12" rx="6" fill="#FFFFFF" fill-opacity="0.9"/>

  <path d="M470 470H1130" stroke="url(#line)" stroke-width="10" stroke-linecap="round" stroke-dasharray="14 16"/>

  <g>
    <circle cx="420" cy="470" r="114" fill="#FFF8EF" stroke="#F2DDBF" stroke-width="3"/>
    <path d="M352 488L388 448L424 472L466 420" stroke="#C96A1B" stroke-width="10" stroke-linecap="round" stroke-linejoin="round"/>
    <circle cx="352" cy="488" r="10" fill="#E48A24"/>
    <circle cx="388" cy="448" r="10" fill="#E48A24"/>
    <circle cx="424" cy="472" r="10" fill="#E48A24"/>
    <circle cx="466" cy="420" r="10" fill="#E48A24"/>
  </g>

  <g>
    <circle cx="800" cy="470" r="150" fill="#FFF7ED" stroke="#F2DDBF" stroke-width="3"/>
    <path d="M744 428L800 390L856 428V492C856 530 832 558 800 574C768 558 744 530 744 492V428Z" fill="#FFFFFF" stroke="#E8C89F" stroke-width="3"/>
    <path d="M772 486L794 508L830 462" stroke="#C96A1B" stroke-width="10" stroke-linecap="round" stroke-linejoin="round"/>
    <rect x="726" y="610" width="148" height="28" rx="14" fill="#C96A1B" fill-opacity="0.18"/>
  </g>

  <g>
    <circle cx="1180" cy="470" r="114" fill="#FFF8EF" stroke="#F2DDBF" stroke-width="3"/>
    <circle cx="1180" cy="442" r="34" fill="#FFFFFF" stroke="#E8C89F" stroke-width="3"/>
    <path d="M1168 442H1192" stroke="#C96A1B" stroke-width="8" stroke-linecap="round"/>
    <path d="M1180 430V454" stroke="#C96A1B" stroke-width="8" stroke-linecap="round"/>
    <path d="M1126 532C1144 500 1160 492 1180 492C1200 492 1216 500 1234 532" stroke="#C96A1B" stroke-width="8" stroke-linecap="round"/>
  </g>

  <rect x="404" y="668" width="792" height="84" rx="42" fill="#C96A1B" fill-opacity="0.14"/>
  <rect x="502" y="702" width="596" height="16" rx="8" fill="#C96A1B" fill-opacity="0.5"/>
</svg>
