<svg width="1600" height="900" viewBox="0 0 1600 900" fill="none" xmlns="http://www.w3.org/2000/svg" role="img" aria-labelledby="title desc">
  <title id="title">Standard pack icons visual</title>
  <desc id="desc">Icon visual for connected HR, finance, workflows, and analytics in standard package.</desc>
  <defs>
    <linearGradient id="bg" x1="80" y1="60" x2="1520" y2="860" gradientUnits="userSpaceOnUse">
      <stop stop-color="#E9FBF6"/>
      <stop offset="1" stop-color="#FBFDFE"/>
    </linearGradient>
    <linearGradient id="line" x1="450" y1="450" x2="1160" y2="450" gradientUnits="userSpaceOnUse">
      <stop stop-color="#189B88"/>
      <stop offset="1" stop-color="#1897B0"/>
    </linearGradient>
  </defs>

  <rect x="24" y="24" width="1552" height="852" rx="42" fill="url(#bg)"/>
  <rect x="86" y="86" width="1428" height="728" rx="34" fill="#FFFFFF" fill-opacity="0.92" stroke="#C8EADF"/>

  <rect x="120" y="120" width="280" height="54" rx="27" fill="#108775"/>
  <rect x="156" y="141" width="208" height="12" rx="6" fill="#FFFFFF" fill-opacity="0.9"/>

  <circle cx="800" cy="450" r="132" fill="#EDF9F6" stroke="#BCE7DE" stroke-width="3"/>
  <rect x="728" y="386" width="144" height="128" rx="22" fill="#FFFFFF" stroke="#BFE8DB" stroke-width="3"/>
  <path d="M758 452H842" stroke="#2AA48C" stroke-width="9" stroke-linecap="round"/>
  <path d="M758 484H824" stroke="#8CCFC0" stroke-width="9" stroke-linecap="round"/>

  <path d="M490 450H668" stroke="url(#line)" stroke-width="10" stroke-linecap="round"/>
  <path d="M932 450H1110" stroke="url(#line)" stroke-width="10" stroke-linecap="round"/>
  <path d="M800 582V670" stroke="url(#line)" stroke-width="10" stroke-linecap="round"/>

  <g>
    <circle cx="420" cy="450" r="102" fill="#F3FCF9" stroke="#C7EBDD" stroke-width="3"/>
    <rect x="364" y="400" width="112" height="100" rx="18" fill="#FFFFFF" stroke="#BFE8DB" stroke-width="3"/>
    <circle cx="402" cy="442" r="10" fill="#189B88"/>
    <circle cx="438" cy="442" r="10" fill="#189B88"/>
    <path d="M384 476C394 460 410 452 420 452C430 452 446 460 456 476" stroke="#189B88" stroke-width="7" stroke-linecap="round"/>
  </g>

  <g>
    <circle cx="1180" cy="450" r="102" fill="#F3FCF9" stroke="#C7EBDD" stroke-width="3"/>
    <rect x="1126" y="394" width="108" height="112" rx="18" fill="#FFFFFF" stroke="#BFE8DB" stroke-width="3"/>
    <path d="M1152 476L1172 496L1208 448" stroke="#108775" stroke-width="9" stroke-linecap="round" stroke-linejoin="round"/>
    <path d="M1150 430H1208" stroke="#8CCFC0" stroke-width="7" stroke-linecap="round"/>
  </g>

  <g>
    <circle cx="800" cy="700" r="92" fill="#F3FCF9" stroke="#C7EBDD" stroke-width="3"/>
    <path d="M750 740V678" stroke="#108775" stroke-width="10" stroke-linecap="round"/>
    <path d="M800 740V648" stroke="#108775" stroke-width="10" stroke-linecap="round"/>
    <path d="M850 740V692" stroke="#108775" stroke-width="10" stroke-linecap="round"/>
    <path d="M744 756H856" stroke="#8CCFC0" stroke-width="8" stroke-linecap="round"/>
  </g>

  <rect x="424" y="200" width="752" height="76" rx="38" fill="#108775" fill-opacity="0.12"/>
  <rect x="504" y="230" width="592" height="16" rx="8" fill="#108775" fill-opacity="0.45"/>
</svg>
